<mxfile host="app.diagrams.net" agent="Mozilla/5.0 (Windows NT 10.0; Win64; x64) AppleWebKit/537.36 (KHTML, like Gecko) Chrome/134.0.0.0 Safari/537.36" version="26.2.15">
  <diagram name="Trang-1" id="LbQ8TYRxrnhjX6h770t7">
    <mxGraphModel dx="1066" dy="513" grid="1" gridSize="10" guides="1" tooltips="1" connect="1" arrows="1" fold="1" page="1" pageScale="1" pageWidth="1169" pageHeight="1654" math="0" shadow="0">
      <root>
        <mxCell id="0" />
        <mxCell id="1" parent="0" />
        <mxCell id="AjrRg9WbGsAxc38q6NlI-3" value="" style="edgeStyle=orthogonalEdgeStyle;rounded=0;orthogonalLoop=1;jettySize=auto;html=1;" edge="1" parent="1" source="AjrRg9WbGsAxc38q6NlI-1" target="AjrRg9WbGsAxc38q6NlI-2">
          <mxGeometry relative="1" as="geometry" />
        </mxCell>
        <mxCell id="AjrRg9WbGsAxc38q6NlI-1" value="Bắt đầu" style="ellipse;whiteSpace=wrap;html=1;" vertex="1" parent="1">
          <mxGeometry x="430" y="80" width="120" height="80" as="geometry" />
        </mxCell>
        <mxCell id="AjrRg9WbGsAxc38q6NlI-5" value="" style="edgeStyle=orthogonalEdgeStyle;rounded=0;orthogonalLoop=1;jettySize=auto;html=1;entryX=0.5;entryY=0;entryDx=0;entryDy=0;" edge="1" parent="1" source="AjrRg9WbGsAxc38q6NlI-2" target="AjrRg9WbGsAxc38q6NlI-8">
          <mxGeometry relative="1" as="geometry">
            <mxPoint x="490" y="320" as="targetPoint" />
          </mxGeometry>
        </mxCell>
        <mxCell id="AjrRg9WbGsAxc38q6NlI-11" value="NO" style="edgeLabel;html=1;align=center;verticalAlign=middle;resizable=0;points=[];" vertex="1" connectable="0" parent="AjrRg9WbGsAxc38q6NlI-5">
          <mxGeometry x="-0.2" y="2" relative="1" as="geometry">
            <mxPoint as="offset" />
          </mxGeometry>
        </mxCell>
        <mxCell id="AjrRg9WbGsAxc38q6NlI-7" value="" style="edgeStyle=orthogonalEdgeStyle;rounded=0;orthogonalLoop=1;jettySize=auto;html=1;" edge="1" parent="1" source="AjrRg9WbGsAxc38q6NlI-2" target="AjrRg9WbGsAxc38q6NlI-6">
          <mxGeometry relative="1" as="geometry" />
        </mxCell>
        <mxCell id="AjrRg9WbGsAxc38q6NlI-10" value="YES" style="edgeLabel;html=1;align=center;verticalAlign=middle;resizable=0;points=[];" vertex="1" connectable="0" parent="AjrRg9WbGsAxc38q6NlI-7">
          <mxGeometry x="-0.5442" y="1" relative="1" as="geometry">
            <mxPoint as="offset" />
          </mxGeometry>
        </mxCell>
        <mxCell id="AjrRg9WbGsAxc38q6NlI-2" value="DEBOUCE từ GPIO25" style="rhombus;whiteSpace=wrap;html=1;" vertex="1" parent="1">
          <mxGeometry x="430" y="190" width="120" height="80" as="geometry" />
        </mxCell>
        <mxCell id="AjrRg9WbGsAxc38q6NlI-6" value="Chuyển đổi trạng thái hiển thị" style="whiteSpace=wrap;html=1;" vertex="1" parent="1">
          <mxGeometry x="585" y="350" width="120" height="60" as="geometry" />
        </mxCell>
        <mxCell id="AjrRg9WbGsAxc38q6NlI-13" value="" style="edgeStyle=orthogonalEdgeStyle;rounded=0;orthogonalLoop=1;jettySize=auto;html=1;entryX=0.5;entryY=0;entryDx=0;entryDy=0;" edge="1" parent="1" source="AjrRg9WbGsAxc38q6NlI-8" target="AjrRg9WbGsAxc38q6NlI-17">
          <mxGeometry relative="1" as="geometry">
            <mxPoint x="490" y="470" as="targetPoint" />
          </mxGeometry>
        </mxCell>
        <mxCell id="AjrRg9WbGsAxc38q6NlI-8" value="Giữ nguyên trạng thái hiển thị" style="rounded=0;whiteSpace=wrap;html=1;" vertex="1" parent="1">
          <mxGeometry x="430" y="350" width="120" height="60" as="geometry" />
        </mxCell>
        <mxCell id="AjrRg9WbGsAxc38q6NlI-16" value="" style="endArrow=classic;html=1;rounded=0;exitX=0.5;exitY=1;exitDx=0;exitDy=0;" edge="1" parent="1" source="AjrRg9WbGsAxc38q6NlI-6">
          <mxGeometry width="50" height="50" relative="1" as="geometry">
            <mxPoint x="520" y="390" as="sourcePoint" />
            <mxPoint x="490" y="440" as="targetPoint" />
            <Array as="points">
              <mxPoint x="645" y="440" />
            </Array>
          </mxGeometry>
        </mxCell>
        <mxCell id="AjrRg9WbGsAxc38q6NlI-19" value="" style="edgeStyle=orthogonalEdgeStyle;rounded=0;orthogonalLoop=1;jettySize=auto;html=1;" edge="1" parent="1" source="AjrRg9WbGsAxc38q6NlI-17" target="AjrRg9WbGsAxc38q6NlI-18">
          <mxGeometry relative="1" as="geometry" />
        </mxCell>
        <mxCell id="AjrRg9WbGsAxc38q6NlI-17" value="Hiển thị lên LED 7 đoạn" style="rounded=0;whiteSpace=wrap;html=1;" vertex="1" parent="1">
          <mxGeometry x="430" y="470" width="120" height="60" as="geometry" />
        </mxCell>
        <mxCell id="AjrRg9WbGsAxc38q6NlI-18" value="Kết thúc" style="ellipse;whiteSpace=wrap;html=1;" vertex="1" parent="1">
          <mxGeometry x="430" y="560" width="120" height="80" as="geometry" />
        </mxCell>
      </root>
    </mxGraphModel>
  </diagram>
</mxfile>
